<svg viewBox="0 0 100 100" xmlns="http://www.w3.org/2000/svg" xmlns:xlink="http://www.w3.org/1999/xlink"><symbol id="a"><path d="M50 10.24c-1.1 0-2.21.74-3.17 2.26L.27 96.82A2.14 2.14 0 0 0 2.15 100h95.7a2.14 2.14 0 0 0 1.88-3.18L53.12 12.5c-.87-1.49-2-2.26-3.08-2.26z" fill="#c4130e"/><path fill="#fff" d="M50 21.06l39.83 72.06H10.18L50 21.06"/><path d="M71.87 85c-3.44 0-5.21-2-6.64-3.66s-2.36-2.59-4.29-2.59-2.84.94-4.28 2.59S53.46 85 50 85s-5.22-2-6.65-3.66-2.37-2.59-4.3-2.59-2.85.94-4.3 2.59S31.57 85 28.13 85v-3.1c1.93 0 2.85-.94 4.3-2.59s3.2-3.66 6.65-3.66 5.22 2 6.65 3.66S48.09 81.9 50 81.9s2.84-.94 4.29-2.59 3.2-3.66 6.64-3.66 5.22 2 6.64 3.66 2.36 2.59 4.28 2.59zm0-9.35c-3.44 0-5.21-2-6.64-3.66s-2.36-2.59-4.29-2.59-2.84.94-4.28 2.59-3.2 3.66-6.64 3.66-5.22-2-6.65-3.66-2.37-2.59-4.3-2.59-2.85.94-4.3 2.59-3.2 3.66-6.65 3.66v-3.13c1.93 0 2.85-.94 4.3-2.59s3.2-3.66 6.65-3.66 5.22 2 6.65 3.66 2.37 2.59 4.3 2.59 2.84-.94 4.29-2.59 3.2-3.66 6.64-3.66 5.22 2 6.64 3.66 2.36 2.59 4.28 2.59zM56.72 49.53v-5.36h-2.68v2.69l-4.03-4.03-9.41 9.38h1.38v9.37h5.85v-6.69h4.26v6.69h5.97v-9.37h1.34l-2.68-2.68z" fill="##000000"/></symbol><use xlink:href="#a" width="100" height="100"/></svg>