<svg viewBox="0 0 100 100" xmlns="http://www.w3.org/2000/svg" xmlns:xlink="http://www.w3.org/1999/xlink"><symbol id="a"><path d="M50 10.24c-1.1 0-2.21.74-3.17 2.26L.27 96.82A2.14 2.14 0 0 0 2.15 100h95.7a2.14 2.14 0 0 0 1.88-3.18L53.12 12.5c-.87-1.49-2-2.26-3.08-2.26z" fill="#c4130e"/><path fill="##000000" d="M50 21.06l39.83 72.06H10.18L50 21.06"/><path d="M50 21.06L32 53.63l31.6 39.5h26.23zm-6.25 35.19a3.13 3.13 0 1 1 3.13-3.12 3.12 3.12 0 0 1-3.13 3.12zm12.5 15.62a6.25 6.25 0 1 1 6.25-6.25 6.25 6.25 0 0 1-6.25 6.26zm14.06 16a7.81 7.81 0 1 1 7.81-7.81 7.81 7.81 0 0 1-7.81 7.82z" fill="#fff"/></symbol><use xlink:href="#a" width="100" height="100"/></svg>