<svg viewBox="0 0 100 100" xmlns="http://www.w3.org/2000/svg" xmlns:xlink="http://www.w3.org/1999/xlink"><symbol id="a"><path d="M50 10.24c-1.1 0-2.21.74-3.17 2.26L.27 96.82A2.14 2.14 0 0 0 2.15 100h95.7a2.14 2.14 0 0 0 1.88-3.18L53.12 12.5c-.87-1.49-2-2.26-3.08-2.26z" fill="#c4130e"/><path fill="#fff" d="M50 21.06l39.83 72.06H10.18L50 21.06"/><path d="M45.83 53.07a7.83 7.83 0 0 0-1.89-.42l-5.88 4.85a8.59 8.59 0 0 1 1.17.31 12.22 12.22 0 0 1 5.71 4.68A11.72 11.72 0 0 1 47 70.55l7.24-3.87a12.14 12.14 0 0 0-2.45-8.83 13.06 13.06 0 0 0-5.96-4.78z" fill="##000000"/><path d="M30.53 63.82a6.85 6.85 0 0 0-2.1 3.93c-.53 3.6 3 9.27 10 7.3 3.44-1.77 6.08-3.17 6.08-3.17 1-2.09.62-5.35-1.31-8.22a10.11 10.11 0 0 0-4.7-3.88 5.49 5.49 0 0 0-2.82-.31m-1.51 10.1c-1.3-1.83-1.6-3.85-.67-4.51s2.74.28 4 2.1 1.6 3.85.67 4.51-2.71-.28-4.01-2.1zM58.28 50a9.14 9.14 0 0 0-10.89-.21L46 50.94c.19.06.36.07.55.14a15.18 15.18 0 0 1 7 5.54A16 16 0 0 1 56 61.95V88h6V50z" fill="##000000"/></symbol><use xlink:href="#a" width="100" height="100"/></svg>