<svg id="589256b0-07b3-49a2-a116-6d6523d7b9f5" data-name="Layer 1" xmlns="http://www.w3.org/2000/svg" viewBox="0 0 38 38"><defs><style>.\33 2ef0061-f887-449b-8bb5-fb09716ba7f4,.b9600f8e-20cd-4a9c-9b75-acfac3d70a10{fill:#00b9f2;}.b9600f8e-20cd-4a9c-9b75-acfac3d70a10{fill-rule:evenodd;}</style></defs><title>share-buttons</title><path class="32ef0061-f887-449b-8bb5-fb09716ba7f4" d="M19,1A18,18,0,1,1,1,19,18,18,0,0,1,19,1m0-1A19,19,0,1,0,38,19,19,19,0,0,0,19,0h0Z"/><path class="32ef0061-f887-449b-8bb5-fb09716ba7f4" d="M19,1A18,18,0,1,1,1,19,18,18,0,0,1,19,1m0-1A19,19,0,1,0,38,19,19,19,0,0,0,19,0h0Z"/><path class="b9600f8e-20cd-4a9c-9b75-acfac3d70a10" d="M20.67,13.68c0-.9.2-1.35,1.59-1.35H24V9H21.33c-3.33,0-4.67,2.22-4.67,4.67v2H14V19h2.67V29h4V19H23.6L24,15.67H20.67v-2Z"/></svg>