<svg id="7720291d-2517-48e9-93a4-ef8943e427ed" data-name="Layer 1" xmlns="http://www.w3.org/2000/svg" viewBox="0 0 38 38"><defs><style>.\33 8f8d330-605a-486f-ae97-2e5114f9bc7e{fill:#00b9f2;}</style></defs><title>share-buttons</title><path class="38f8d330-605a-486f-ae97-2e5114f9bc7e" d="M19,1A18,18,0,1,1,1,19,18,18,0,0,1,19,1m0-1A19,19,0,1,0,38,19,19,19,0,0,0,19,0h0Z"/><g id="61203aab-1248-4149-9b1e-76a2ef108b59" data-name="post-instagram"><path class="38f8d330-605a-486f-ae97-2e5114f9bc7e" d="M26.2,10H11.8A1.81,1.81,0,0,0,10,11.8V26.2A1.81,1.81,0,0,0,11.8,28H26.2A1.81,1.81,0,0,0,28,26.2V11.8A1.81,1.81,0,0,0,26.2,10ZM19,15.4A3.6,3.6,0,1,1,15.4,19,3.61,3.61,0,0,1,19,15.4ZM12.25,26.2a0.43,0.43,0,0,1-.45-0.45V18.1h1.89a3.06,3.06,0,0,0-.09.9,5.4,5.4,0,0,0,10.8,0,3.06,3.06,0,0,0-.09-0.9H26.2v7.65a0.43,0.43,0,0,1-.45.45H12.25Zm14-12.15a0.43,0.43,0,0,1-.45.45H24a0.43,0.43,0,0,1-.45-0.45v-1.8A0.43,0.43,0,0,1,24,11.8h1.8a0.43,0.43,0,0,1,.45.45v1.8Z"/></g></svg>