<svg id="e06cf6cf-4486-437d-91aa-bbf400472113" data-name="Layer 1" xmlns="http://www.w3.org/2000/svg" viewBox="0 0 38 38"><defs><style>.\33 e105ad7-413c-4cf6-9f83-6ad4cb3c4e89,.\39 e617627-0c44-45ed-abfb-28cf15103dd2{fill:#00b9f2;}.\33 e105ad7-413c-4cf6-9f83-6ad4cb3c4e89{fill-rule:evenodd;}</style></defs><title>share-buttons</title><path class="9e617627-0c44-45ed-abfb-28cf15103dd2" d="M19,1A18,18,0,1,1,1,19,18,18,0,0,1,19,1m0-1A19,19,0,1,0,38,19,19,19,0,0,0,19,0h0Z"/><path class="3e105ad7-413c-4cf6-9f83-6ad4cb3c4e89" d="M28,13.78a7.34,7.34,0,0,1-2.12.6,3.78,3.78,0,0,0,1.62-2.09,7.24,7.24,0,0,1-2.35.92,3.65,3.65,0,0,0-2.7-1.2,3.74,3.74,0,0,0-3.69,3.79,3.8,3.8,0,0,0,.1.86,10.39,10.39,0,0,1-7.61-4,3.86,3.86,0,0,0-.5,1.9,3.82,3.82,0,0,0,1.65,3.15,3.54,3.54,0,0,1-1.68-.47v0a3.76,3.76,0,0,0,3,3.71,3.64,3.64,0,0,1-1,.13A3.41,3.41,0,0,1,12,21.09a3.71,3.71,0,0,0,3.45,2.63A7.28,7.28,0,0,1,10,25.29,10.15,10.15,0,0,0,15.65,27c6.8,0,10.52-5.77,10.52-10.77,0-.16,0-0.33,0-0.49a7.62,7.62,0,0,0,1.84-2"/></svg>